<svg xmlns="http://www.w3.org/2000/svg" xmlns:xlink="http://www.w3.org/1999/xlink" version="1.1" class="marks" width="476" height="319" viewBox="0 0 476 319"><g fill="none" stroke-miterlimit="10" transform="translate(8,91)"><g class="mark-group role-frame root" role="graphics-object" aria-roledescription="group mark container"><g transform="translate(0,0)"><path class="background" aria-hidden="true" d="M0,0h0v0h0Z"/><g><g class="mark-group role-column-header column_header" role="graphics-object" aria-roledescription="group mark container"><g transform="translate(0,0)"><path class="background" aria-hidden="true" d="M0,0h220v0h-220Z"/><g><g class="mark-group role-title"><g transform="translate(110,-23)"><path class="background" aria-hidden="true" d="M0,0h0v0h0Z" pointer-events="none"/><g><g class="mark-text role-title-text" role="graphics-symbol" aria-roledescription="title" aria-label="Title text 'Before'" pointer-events="none"><text text-anchor="middle" transform="translate(0,10)" font-family="-apple-system, BlinkMacSystemFont, &quot;Inter&quot;, system-ui, sans-serif" font-size="13px" fill="#24292e" opacity="1">Before</text></g></g><path class="foreground" aria-hidden="true" d="" pointer-events="none" display="none"/></g></g></g><path class="foreground" aria-hidden="true" d="" display="none"/></g><g transform="translate(240,0)"><path class="background" aria-hidden="true" d="M0,0h220v0h-220Z"/><g><g class="mark-group role-title"><g transform="translate(110,-23)"><path class="background" aria-hidden="true" d="M0,0h0v0h0Z" pointer-events="none"/><g><g class="mark-text role-title-text" role="graphics-symbol" aria-roledescription="title" aria-label="Title text 'After'" pointer-events="none"><text text-anchor="middle" transform="translate(0,10)" font-family="-apple-system, BlinkMacSystemFont, &quot;Inter&quot;, system-ui, sans-serif" font-size="13px" fill="#24292e" opacity="1">After</text></g></g><path class="foreground" aria-hidden="true" d="" pointer-events="none" display="none"/></g></g></g><path class="foreground" aria-hidden="true" d="" display="none"/></g></g><g class="mark-group role-scope cell" role="graphics-object" aria-roledescription="group mark container"><g transform="translate(0,0)"><path class="background" aria-hidden="true" d="M0,0h220v220h-220Z"/><g><g class="mark-arc role-mark child_layer_0_marks" role="graphics-object" aria-roledescription="arc mark container"><path aria-label="n: 49; state: Done; ord: 1" role="graphics-symbol" aria-roledescription="arc mark" transform="translate(110,110)" d="M21.361,97.692A100,100,0,0,0,0.583,-99.998L0.583,-59.997A60,60,0,0,1,13.044,58.565Z" fill="#3aa55c" stroke="#ffffff" stroke-width="2"/><path aria-label="n: 27; state: Real Todo; ord: 2" role="graphics-symbol" aria-roledescription="arc mark" transform="translate(110,110)" d="M-98.552,16.957A100,100,0,0,0,20.22,97.934L11.904,58.807A60,60,0,0,1,-59.091,10.404Z" fill="#4a8ec8" stroke="#ffffff" stroke-width="2"/><path aria-label="n: 24; state: Ghost Todo; ord: 3" role="graphics-symbol" aria-roledescription="arc mark" transform="translate(110,110)" d="M-30.032,-95.384A100,100,0,0,0,-98.743,15.806L-59.282,9.253A60,60,0,0,1,-18.242,-57.16Z" fill="#d96080" stroke="#ffffff" stroke-width="2"/><path aria-label="n: 5; state: In Progress; ord: 4" role="graphics-symbol" aria-roledescription="arc mark" transform="translate(110,110)" d="M-0.583,-99.998A100,100,0,0,0,-28.918,-95.728L-17.127,-57.504A60,60,0,0,1,-0.583,-59.997Z" fill="#c0921a" stroke="#ffffff" stroke-width="2"/></g><g class="mark-text role-mark child_layer_1_marks" role="graphics-object" aria-roledescription="text mark container"><text aria-label="n: 49; ord: 1" role="graphics-symbol" aria-roledescription="text mark" text-anchor="middle" transform="translate(189.56175162946187,105.63772293858773)" font-family="-apple-system, BlinkMacSystemFont, &quot;Inter&quot;, system-ui, sans-serif" font-size="13px" font-weight="600" fill="#ffffff">49</text><text aria-label="n: 27; ord: 2" role="graphics-symbol" aria-roledescription="text mark" text-anchor="middle" transform="translate(64.93439535491024,180.09910194527959)" font-family="-apple-system, BlinkMacSystemFont, &quot;Inter&quot;, system-ui, sans-serif" font-size="13px" font-weight="600" fill="#ffffff">27</text><text aria-label="n: 24; ord: 3" role="graphics-symbol" aria-roledescription="text mark" text-anchor="middle" transform="translate(41.94559474501281,71.94529841515966)" font-family="-apple-system, BlinkMacSystemFont, &quot;Inter&quot;, system-ui, sans-serif" font-size="13px" font-weight="600" fill="#ffffff">24</text><text aria-label="n: 5; ord: 4" role="graphics-symbol" aria-roledescription="text mark" text-anchor="middle" transform="translate(98.07661870590599,34.89353390198973)" font-family="-apple-system, BlinkMacSystemFont, &quot;Inter&quot;, system-ui, sans-serif" font-size="13px" font-weight="600" fill="#ffffff">5</text></g></g><path class="foreground" aria-hidden="true" d="" display="none"/></g><g transform="translate(240,0)"><path class="background" aria-hidden="true" d="M0,0h220v220h-220Z"/><g><g class="mark-arc role-mark child_layer_0_marks" role="graphics-object" aria-roledescription="arc mark container"><path aria-label="n: 73; state: Done; ord: 1" role="graphics-symbol" aria-roledescription="arc mark" transform="translate(110,110)" d="M-93.94,34.281A100,100,0,1,0,0.583,-99.998L0.583,-59.997A60,60,0,1,1,-56.284,20.788Z" fill="#3aa55c" stroke="#ffffff" stroke-width="2"/><path aria-label="n: 30; state: Real Todo; ord: 2" role="graphics-symbol" aria-roledescription="arc mark" transform="translate(110,110)" d="M-12.518,-99.213A100,100,0,0,0,-94.334,33.184L-56.677,19.69A60,60,0,0,1,-7.742,-59.498Z" fill="#4a8ec8" stroke="#ffffff" stroke-width="2"/><path aria-label="n: 0; state: Ghost Todo; ord: 3" role="graphics-symbol" aria-roledescription="arc mark" transform="translate(110,110)" d="M-11.939,-99.285L-7.164,-59.571Z" fill="#d96080" stroke="#ffffff" stroke-width="2"/><path aria-label="n: 2; state: In Progress; ord: 4" role="graphics-symbol" aria-roledescription="arc mark" transform="translate(110,110)" d="M-0.583,-99.998A100,100,0,0,0,-11.36,-99.353L-6.584,-59.638A60,60,0,0,1,-0.583,-59.997Z" fill="#c0921a" stroke="#ffffff" stroke-width="2"/></g><g class="mark-text role-mark child_layer_1_marks" role="graphics-object" aria-roledescription="text mark container"><text aria-label="n: 73; ord: 1" role="graphics-symbol" aria-roledescription="text mark" text-anchor="middle" transform="translate(175.41755085315452,160.04936525485385)" font-family="-apple-system, BlinkMacSystemFont, &quot;Inter&quot;, system-ui, sans-serif" font-size="13px" font-weight="600" fill="#ffffff">73</text><text aria-label="n: 30; ord: 2" role="graphics-symbol" aria-roledescription="text mark" text-anchor="middle" transform="translate(41.94559474501281,71.94529841515966)" font-family="-apple-system, BlinkMacSystemFont, &quot;Inter&quot;, system-ui, sans-serif" font-size="13px" font-weight="600" fill="#ffffff">30</text><text aria-label="n: 2; ord: 4" role="graphics-symbol" aria-roledescription="text mark" text-anchor="middle" transform="translate(105.21566768439727,34.14318961858119)" font-family="-apple-system, BlinkMacSystemFont, &quot;Inter&quot;, system-ui, sans-serif" font-size="13px" font-weight="600" fill="#ffffff">2</text></g></g><path class="foreground" aria-hidden="true" d="" display="none"/></g></g><g class="mark-group role-legend" role="graphics-symbol" aria-roledescription="legend" aria-label="Symbol legend for fill color with 4 values: Done, Real Todo, Ghost Todo, In Progress"><g transform="translate(0,-55)"><path class="background" aria-hidden="true" d="M0,0h453v14h-453Z" pointer-events="none"/><g><g class="mark-group role-legend-entry"><g transform="translate(0,0)"><path class="background" aria-hidden="true" d="M0,0h0v0h0Z" pointer-events="none"/><g><g class="mark-group role-scope" role="graphics-object" aria-roledescription="group mark container"><g transform="translate(0,0.25)"><path class="background" aria-hidden="true" d="M0,0h58v13.5h-58Z" pointer-events="none" opacity="1"/><g><g class="mark-symbol role-legend-symbol" pointer-events="none"><path transform="translate(6.5,6.5)" d="M5,0A5,5,0,1,1,-5,0A5,5,0,1,1,5,0" fill="#3aa55c" stroke="#ffffff" stroke-width="2" opacity="1"/></g><g class="mark-text role-legend-label" pointer-events="none"><text text-anchor="start" transform="translate(17,10.5)" font-family="-apple-system, BlinkMacSystemFont, &quot;Inter&quot;, system-ui, sans-serif" font-size="13px" fill="#24292e" opacity="1">Done</text></g></g><path class="foreground" aria-hidden="true" d="" pointer-events="none" display="none"/></g><g transform="translate(69,0.25)"><path class="background" aria-hidden="true" d="M0,0h110v13.5h-110Z" pointer-events="none" opacity="1"/><g><g class="mark-symbol role-legend-symbol" pointer-events="none"><path transform="translate(6.5,6.5)" d="M5,0A5,5,0,1,1,-5,0A5,5,0,1,1,5,0" fill="#4a8ec8" stroke="#ffffff" stroke-width="2" opacity="1"/></g><g class="mark-text role-legend-label" pointer-events="none"><text text-anchor="start" transform="translate(17,10.5)" font-family="-apple-system, BlinkMacSystemFont, &quot;Inter&quot;, system-ui, sans-serif" font-size="13px" fill="#24292e" opacity="1">Real Todo</text></g></g><path class="foreground" aria-hidden="true" d="" pointer-events="none" display="none"/></g><g transform="translate(190,0.25)"><path class="background" aria-hidden="true" d="M0,0h121v13.5h-121Z" pointer-events="none" opacity="1"/><g><g class="mark-symbol role-legend-symbol" pointer-events="none"><path transform="translate(6.5,6.5)" d="M5,0A5,5,0,1,1,-5,0A5,5,0,1,1,5,0" fill="#d96080" stroke="#ffffff" stroke-width="2" opacity="1"/></g><g class="mark-text role-legend-label" pointer-events="none"><text text-anchor="start" transform="translate(17,10.5)" font-family="-apple-system, BlinkMacSystemFont, &quot;Inter&quot;, system-ui, sans-serif" font-size="13px" fill="#24292e" opacity="1">Ghost Todo</text></g></g><path class="foreground" aria-hidden="true" d="" pointer-events="none" display="none"/></g><g transform="translate(322,0.25)"><path class="background" aria-hidden="true" d="M0,0h131v13.5h-131Z" pointer-events="none" opacity="1"/><g><g class="mark-symbol role-legend-symbol" pointer-events="none"><path transform="translate(6.5,6.5)" d="M5,0A5,5,0,1,1,-5,0A5,5,0,1,1,5,0" fill="#c0921a" stroke="#ffffff" stroke-width="2" opacity="1"/></g><g class="mark-text role-legend-label" pointer-events="none"><text text-anchor="start" transform="translate(17,10.5)" font-family="-apple-system, BlinkMacSystemFont, &quot;Inter&quot;, system-ui, sans-serif" font-size="13px" fill="#24292e" opacity="1">In Progress</text></g></g><path class="foreground" aria-hidden="true" d="" pointer-events="none" display="none"/></g></g></g><path class="foreground" aria-hidden="true" d="" pointer-events="none" display="none"/></g></g></g><path class="foreground" aria-hidden="true" d="" pointer-events="none" display="none"/></g></g><g class="mark-group role-title"><g transform="translate(0,-83)"><path class="background" aria-hidden="true" d="M0,0h0v0h0Z" pointer-events="none"/><g><g class="mark-text role-title-text" role="graphics-symbol" aria-roledescription="title" aria-label="Title text 'Ghost Todos masked the real backlog'" pointer-events="none"><text text-anchor="start" transform="translate(0,13)" font-family="-apple-system, BlinkMacSystemFont, &quot;Inter&quot;, system-ui, sans-serif" font-size="16px" font-weight="600" fill="#24292e" opacity="1">Ghost Todos masked the real backlog</text></g></g><path class="foreground" aria-hidden="true" d="" pointer-events="none" display="none"/></g></g></g><path class="foreground" aria-hidden="true" d="" display="none"/></g></g></g></svg>