<svg xmlns="http://www.w3.org/2000/svg" xmlns:xlink="http://www.w3.org/1999/xlink" version="1.1" class="marks" width="410" height="398" viewBox="0 0 410 398"><g fill="none" stroke-miterlimit="10" transform="translate(45,70)"><g class="mark-group role-frame root" role="graphics-object" aria-roledescription="group mark container"><g transform="translate(0,0)"><path class="background" aria-hidden="true" d="M0,0h320v320h-320Z"/><g><g class="mark-arc role-mark layer_0_layer_0_marks" role="graphics-object" aria-roledescription="arc mark container"><path aria-label="n: 3615480; kind: Cache read" role="graphics-symbol" aria-roledescription="arc mark" transform="translate(160,160)" d="M-67.404,-122.706A140,140,0,1,0,7.865,-139.779L5.353,-89.841A90,90,0,1,1,-43.591,-78.739Z" fill="#4a8ec8" stroke="#ffffff" stroke-width="2"/><path aria-label="n: 312840; kind: New input" role="graphics-symbol" aria-roledescription="arc mark" transform="translate(160,160)" d="M-0.832,-139.998A140,140,0,0,0,-65.94,-123.498L-42.128,-79.531A90,90,0,0,1,-0.832,-89.996Z" fill="#e58643" stroke="#ffffff" stroke-width="2"/><path aria-label="n: 31680; kind: Agent output" role="graphics-symbol" aria-roledescription="arc mark" transform="translate(160,160)" d="M6.203,-139.863A140,140,0,0,0,0.832,-139.998L0.832,-89.996A90,90,0,0,1,3.691,-89.924Z" fill="#3aa55c" stroke="#ffffff" stroke-width="2"/></g><g class="mark-text role-mark layer_0_layer_1_marks" role="graphics-object" aria-roledescription="text mark container"><text aria-label="label_x: 191.041753863; label_y: 270.731249054; label: 91.3%" role="graphics-symbol" aria-roledescription="text mark" text-anchor="middle" transform="translate(191.04175386295708,274.7312490542376)" font-family="-apple-system, BlinkMacSystemFont, &quot;Inter&quot;, system-ui, sans-serif" font-size="13px" font-weight="600" fill="#ffffff" opacity="1">91.3%</text><text aria-label="label_x: 126.185362598; label_y: 50.0838032982; label: 7.9%" role="graphics-symbol" aria-roledescription="text mark" text-anchor="middle" transform="translate(126.18536259828501,54.08380329819205)" font-family="-apple-system, BlinkMacSystemFont, &quot;Inter&quot;, system-ui, sans-serif" font-size="13px" font-weight="600" fill="#ffffff" opacity="1">7.9%</text><text aria-label="label_x: 157.110039024; label_y: 45.0363182324; label: 0.8%" role="graphics-symbol" aria-roledescription="text mark" text-anchor="middle" transform="translate(157.11003902401615,49.03631823242051)" font-family="-apple-system, BlinkMacSystemFont, &quot;Inter&quot;, system-ui, sans-serif" font-size="13px" font-weight="600" fill="#ffffff" opacity="0">0.8%</text></g><g class="mark-text role-mark layer_1_marks" role="graphics-object" aria-roledescription="text mark container"><text text-anchor="middle" transform="translate(160,161)" font-family="-apple-system, BlinkMacSystemFont, &quot;Inter&quot;, system-ui, sans-serif" font-size="30px" font-weight="600" fill="#24292e">3.96M</text></g><g class="mark-text role-mark layer_2_marks" role="graphics-object" aria-roledescription="text mark container"><text text-anchor="middle" transform="translate(160,184)" font-family="-apple-system, BlinkMacSystemFont, &quot;Inter&quot;, system-ui, sans-serif" font-size="13px" fill="#6e7781">tokens</text></g><g class="mark-group role-legend" role="graphics-symbol" aria-roledescription="legend" aria-label="Symbol legend for fill color with 3 values: Cache read, New input, Agent output"><g transform="translate(-37,-34)"><path class="background" aria-hidden="true" d="M0,0h394v14h-394Z" pointer-events="none"/><g><g class="mark-group role-legend-entry"><g transform="translate(0,0)"><path class="background" aria-hidden="true" d="M0,0h0v0h0Z" pointer-events="none"/><g><g class="mark-group role-scope" role="graphics-object" aria-roledescription="group mark container"><g transform="translate(0,0.25)"><path class="background" aria-hidden="true" d="M0,0h121v13.5h-121Z" pointer-events="none" opacity="1"/><g><g class="mark-symbol role-legend-symbol" pointer-events="none"><path transform="translate(6.5,6.5)" d="M5,0A5,5,0,1,1,-5,0A5,5,0,1,1,5,0" fill="#4a8ec8" stroke="#ffffff" stroke-width="2" opacity="1"/></g><g class="mark-text role-legend-label" pointer-events="none"><text text-anchor="start" transform="translate(17,10.5)" font-family="-apple-system, BlinkMacSystemFont, &quot;Inter&quot;, system-ui, sans-serif" font-size="13px" fill="#24292e" opacity="1">Cache read</text></g></g><path class="foreground" aria-hidden="true" d="" pointer-events="none" display="none"/></g><g transform="translate(132,0.25)"><path class="background" aria-hidden="true" d="M0,0h110v13.5h-110Z" pointer-events="none" opacity="1"/><g><g class="mark-symbol role-legend-symbol" pointer-events="none"><path transform="translate(6.5,6.5)" d="M5,0A5,5,0,1,1,-5,0A5,5,0,1,1,5,0" fill="#e58643" stroke="#ffffff" stroke-width="2" opacity="1"/></g><g class="mark-text role-legend-label" pointer-events="none"><text text-anchor="start" transform="translate(17,10.5)" font-family="-apple-system, BlinkMacSystemFont, &quot;Inter&quot;, system-ui, sans-serif" font-size="13px" fill="#24292e" opacity="1">New input</text></g></g><path class="foreground" aria-hidden="true" d="" pointer-events="none" display="none"/></g><g transform="translate(253,0.25)"><path class="background" aria-hidden="true" d="M0,0h141v13.5h-141Z" pointer-events="none" opacity="1"/><g><g class="mark-symbol role-legend-symbol" pointer-events="none"><path transform="translate(6.5,6.5)" d="M5,0A5,5,0,1,1,-5,0A5,5,0,1,1,5,0" fill="#3aa55c" stroke="#ffffff" stroke-width="2" opacity="1"/></g><g class="mark-text role-legend-label" pointer-events="none"><text text-anchor="start" transform="translate(17,10.5)" font-family="-apple-system, BlinkMacSystemFont, &quot;Inter&quot;, system-ui, sans-serif" font-size="13px" fill="#24292e" opacity="1">Agent output</text></g></g><path class="foreground" aria-hidden="true" d="" pointer-events="none" display="none"/></g></g></g><path class="foreground" aria-hidden="true" d="" pointer-events="none" display="none"/></g></g></g><path class="foreground" aria-hidden="true" d="" pointer-events="none" display="none"/></g></g><g class="mark-group role-title"><g transform="translate(160,-62)"><path class="background" aria-hidden="true" d="M0,0h0v0h0Z" pointer-events="none"/><g><g class="mark-text role-title-text" role="graphics-symbol" aria-roledescription="title" aria-label="Title text '91% of tokens were cache reads'" pointer-events="none"><text text-anchor="middle" transform="translate(0,13)" font-family="-apple-system, BlinkMacSystemFont, &quot;Inter&quot;, system-ui, sans-serif" font-size="16px" font-weight="600" fill="#24292e" opacity="1">91% of tokens were cache reads</text></g></g><path class="foreground" aria-hidden="true" d="" pointer-events="none" display="none"/></g></g></g><path class="foreground" aria-hidden="true" d="" display="none"/></g></g></g></svg>